# xmcd
#
# Track frame offsets: 
#        150
#        17873
#        33835
#        51310
#        79208
#        104665
#        130305
#        157698
#        178958
#        193315
#        213040
#        236118
#
# Disc length: 3464 seconds
#
# Revision: 0
# Processed by: cddbd v1.5.2PL0 Copyright (c) Steve Scherf et al.
# Submitted via: ExactAudioCopy v1.0b3
#
DISCID=a60d860c
DTITLE=Various Artist - Da vu Nhat Truong
DYEAR=1990
DGENRE=
TTITLE0=Kieu Nga - Tinh co nhu khong
TTITLE1=Duy Quang, Ngoc Lan, Nhu Lan - Toi da gap
TTITLE2=Huong Lan - Buc tam thu
TTITLE3=Ngoc Lan, Duy Quang - Qua phu ngay tho
TTITLE4=Tuan Anh - Chuyen tinh Mong Thuong
TTITLE5=Nhat Truong - Hanh trang gia tu
TTITLE6=Vu Khanh, Kieu Nga - Chieu tren pha Tam Giang
TTITLE7=Liliann - Muoi sau trang tron
TTITLE8=Thuy Vi - Doi nga doi ta
TTITLE9=Ngoc Lan - Tinh thu cua linh
TTITLE10=Nhat Truong - Loi tinh viet voi
TTITLE11=Nhu Mai - Chuyen nguoi dan ao
EXTD=
EXTT0=
EXTT1=
EXTT2=
EXTT3=
EXTT4=
EXTT5=
EXTT6=
EXTT7=
EXTT8=
EXTT9=
EXTT10=
EXTT11=
PLAYORDER=
